<svg xmlns="http://www.w3.org/2000/svg" xmlns:xlink="http://www.w3.org/1999/xlink" width="450" height="210" viewBox="0 0 450 210"><rect width="100%" height="100%" fill="#DDDDDD"/><path d="M95.28 110.43L108.70 110.43L108.70 96.00Q108.70 93.96 108.98 91.49L108.98 91.49L95.28 110.43ZM115.26 110.43L120.81 110.43L120.81 114.79Q120.81 115.40 120.42 115.84Q120.02 116.28 119.29 116.28L119.29 116.28L115.26 116.28L115.26 127.05L108.70 127.05L108.70 116.28L90.10 116.28Q89.34 116.28 88.76 115.81Q88.18 115.34 88.02 114.64L88.02 114.64L87.23 110.83L108.12 82.92L115.26 82.92L115.26 110.43ZM136.31 89.78L134.75 98.96Q136.21 98.66 137.56 98.52Q138.90 98.38 140.15 98.38L140.15 98.38Q143.63 98.38 146.28 99.42Q148.93 100.46 150.73 102.29Q152.53 104.12 153.45 106.57Q154.36 109.03 154.36 111.86L154.36 111.86Q154.36 115.37 153.13 118.27Q151.89 121.17 149.70 123.22Q147.50 125.28 144.50 126.41Q141.49 127.54 137.95 127.54L137.95 127.54Q135.88 127.54 134.02 127.11Q132.16 126.69 130.53 125.97Q128.89 125.25 127.51 124.32Q126.12 123.39 125.02 122.35L125.02 122.35L127.34 119.15Q128.07 118.12 129.26 118.12L129.26 118.12Q130.02 118.12 130.82 118.60Q131.61 119.09 132.63 119.67Q133.65 120.25 135.04 120.74Q136.43 121.23 138.38 121.23L138.38 121.23Q140.45 121.23 142.04 120.56Q143.63 119.88 144.68 118.68Q145.73 117.47 146.26 115.81Q146.80 114.15 146.80 112.20L146.80 112.20Q146.80 108.60 144.71 106.57Q142.62 104.54 138.53 104.54L138.53 104.54Q135.39 104.54 132.10 105.70L132.10 105.70L127.40 104.36L131.06 82.95L152.84 82.95L152.84 86.15Q152.84 87.77 151.83 88.77Q150.82 89.78 148.41 89.78L148.41 89.78L136.31 89.78ZM191.60 105L191.60 105Q191.60 110.76 190.37 115.02Q189.13 119.27 186.95 122.05Q184.77 124.83 181.80 126.18Q178.82 127.54 175.38 127.54L175.38 127.54Q171.93 127.54 168.99 126.18Q166.04 124.83 163.88 122.05Q161.71 119.27 160.49 115.02Q159.27 110.76 159.27 105L159.27 105Q159.27 99.21 160.49 94.97Q161.71 90.73 163.88 87.95Q166.04 85.18 168.99 83.82Q171.93 82.46 175.38 82.46L175.38 82.46Q178.82 82.46 181.80 83.82Q184.77 85.18 186.95 87.95Q189.13 90.73 190.37 94.97Q191.60 99.21 191.60 105ZM183.82 105L183.82 105Q183.82 100.21 183.12 97.07Q182.42 93.93 181.25 92.07Q180.07 90.21 178.55 89.46Q177.02 88.71 175.38 88.71L175.38 88.71Q173.76 88.71 172.25 89.46Q170.74 90.21 169.58 92.07Q168.42 93.93 167.74 97.07Q167.05 100.21 167.05 105L167.05 105Q167.05 109.79 167.74 112.93Q168.42 116.07 169.58 117.93Q170.74 119.79 172.25 120.54Q173.76 121.29 175.38 121.29L175.38 121.29Q177.02 121.29 178.55 120.54Q180.07 119.79 181.25 117.93Q182.42 116.07 183.12 112.93Q183.82 109.79 183.82 105ZM240.04 116.96L236.04 120.89L225.70 110.55L215.27 120.95L211.28 117.02L221.71 106.56L211.76 96.61L215.73 92.65L225.67 102.59L235.55 92.71L239.58 96.67L229.67 106.59L240.04 116.96ZM276.76 120.04L288.07 120.04Q289.29 120.04 290.01 120.72Q290.73 121.41 290.73 122.54L290.73 122.54L290.73 127.05L260.47 127.05L260.47 124.55Q260.47 123.79 260.79 122.95Q261.11 122.11 261.81 121.44L261.81 121.44L275.20 108.02Q276.88 106.31 278.21 104.76Q279.53 103.20 280.42 101.68Q281.30 100.15 281.78 98.58Q282.25 97.01 282.25 95.27L282.25 95.27Q282.25 93.68 281.79 92.48Q281.33 91.28 280.49 90.45Q279.66 89.63 278.48 89.22Q277.31 88.80 275.84 88.80L275.84 88.80Q274.50 88.80 273.36 89.19Q272.21 89.57 271.33 90.25Q270.44 90.94 269.84 91.85Q269.23 92.77 268.92 93.87L268.92 93.87Q268.40 95.27 267.58 95.73Q266.75 96.19 265.20 95.94L265.20 95.94L261.23 95.24Q261.69 92.07 263.00 89.67Q264.31 87.28 266.28 85.68Q268.25 84.08 270.80 83.27Q273.34 82.46 276.27 82.46L276.27 82.46Q279.32 82.46 281.85 83.36Q284.38 84.26 286.18 85.91Q287.98 87.55 288.99 89.87Q290.00 92.19 290.00 95.03L290.00 95.03Q290.00 97.47 289.28 99.54Q288.56 101.61 287.36 103.51Q286.15 105.40 284.54 107.17Q282.92 108.93 281.15 110.76L281.15 110.76L271.21 120.92Q272.64 120.49 274.06 120.27Q275.48 120.04 276.76 120.04L276.76 120.04ZM317.17 121.41L325.10 121.41L325.10 127.05L300.70 127.05L300.70 121.41L309.64 121.41L309.64 95.70Q309.64 94.17 309.73 92.56L309.73 92.56L303.38 97.86Q302.84 98.29 302.30 98.40Q301.77 98.50 301.30 98.41Q300.82 98.32 300.46 98.09Q300.09 97.86 299.91 97.59L299.91 97.59L297.53 94.33L310.98 82.89L317.17 82.89L317.17 121.41ZM362.77 105L362.77 105Q362.77 110.76 361.53 115.02Q360.30 119.27 358.12 122.05Q355.94 124.83 352.96 126.18Q349.99 127.54 346.54 127.54L346.54 127.54Q343.10 127.54 340.15 126.18Q337.21 124.83 335.04 122.05Q332.88 119.27 331.66 115.02Q330.44 110.76 330.44 105L330.44 105Q330.44 99.21 331.66 94.97Q332.88 90.73 335.04 87.95Q337.21 85.18 340.15 83.82Q343.10 82.46 346.54 82.46L346.54 82.46Q349.99 82.46 352.96 83.82Q355.94 85.18 358.12 87.95Q360.30 90.73 361.53 94.97Q362.77 99.21 362.77 105ZM354.99 105L354.99 105Q354.99 100.21 354.29 97.07Q353.59 93.93 352.41 92.07Q351.24 90.21 349.71 89.46Q348.19 88.71 346.54 88.71L346.54 88.71Q344.93 88.71 343.42 89.46Q341.91 90.21 340.75 92.07Q339.59 93.93 338.90 97.07Q338.22 100.21 338.22 105L338.22 105Q338.22 109.79 338.90 112.93Q339.59 116.07 340.75 117.93Q341.91 119.79 343.42 120.54Q344.93 121.29 346.54 121.29L346.54 121.29Q348.19 121.29 349.71 120.54Q351.24 119.79 352.41 117.93Q353.59 116.07 354.29 112.93Q354.99 109.79 354.99 105Z" fill="#999999"/></svg>